<svg width="512" height="512" viewBox="0 0 512 512" fill="none" xmlns="http://www.w3.org/2000/svg">
<g filter="url(#filter0_d_103_47)">
<path fill-rule="evenodd" clip-rule="evenodd" d="M462 178.314C462 173.423 462.002 168.531 461.972 163.64C461.947 159.519 461.9 155.4 461.788 151.281C461.546 142.305 461.016 133.251 459.42 124.375C457.801 115.37 455.157 106.99 450.991 98.8083C446.895 90.7669 441.544 83.4084 435.16 77.0289C428.778 70.6494 421.417 65.3025 413.373 61.209C405.183 57.0415 396.793 54.3985 387.779 52.78C378.902 51.186 369.846 50.6575 360.869 50.415C356.748 50.3035 352.626 50.2565 348.504 50.231C343.61 50.201 338.716 50.2035 333.822 50.2035L276.998 50H234.499L178.681 50.2035C173.777 50.2035 168.874 50.201 163.97 50.231C159.839 50.2565 155.71 50.3035 151.581 50.415C142.583 50.6575 133.507 51.1865 124.608 52.7825C115.582 54.4005 107.18 57.0425 98.9791 61.207C90.9177 65.301 83.5413 70.6484 77.1453 77.0289C70.7503 83.4079 65.3899 90.7649 61.2864 98.8048C57.1084 106.99 54.4595 115.376 52.8365 124.385C51.2385 133.258 50.709 142.309 50.4655 151.281C50.3545 155.4 50.3065 159.52 50.2815 163.64C50.2515 168.532 50 174.608 50 179.5L50.0015 234.544L50 277.499L50.254 333.713C50.254 338.611 50.252 343.509 50.2815 348.407C50.3065 352.533 50.3545 356.658 50.466 360.783C50.709 369.771 51.2395 378.837 52.839 387.726C54.4615 396.742 57.1099 405.135 61.2844 413.327C65.3884 421.38 70.7498 428.748 77.1453 435.136C83.5408 441.525 90.9152 446.879 98.9751 450.978C107.181 455.151 115.587 457.798 124.619 459.418C133.513 461.015 142.587 461.544 151.581 461.787C155.71 461.898 159.84 461.946 163.971 461.971C168.874 462.001 173.777 461.999 178.681 461.999L235.003 462H277.608L333.822 461.998C338.716 461.998 343.61 462.001 348.504 461.971C352.626 461.946 356.748 461.898 360.869 461.787C369.849 461.544 378.908 461.014 387.789 459.416C396.798 457.796 405.184 455.15 413.369 450.98C421.415 446.881 428.777 441.526 435.16 435.136C441.543 428.749 446.893 421.382 450.989 413.33C455.158 405.134 457.802 396.738 459.422 387.715C461.017 378.83 461.546 369.767 461.788 360.783C461.9 356.658 461.947 352.533 461.972 348.407C462.002 343.509 462 338.611 462 333.713C462 333.713 461.997 278.492 461.997 277.499V234.499C461.997 233.766 462 178.314 462 178.314" fill="white"/>
</g>
<mask id="mask0_103_47" style="mask-type:luminance" maskUnits="userSpaceOnUse" x="50" y="50" width="412" height="412">
<path fill-rule="evenodd" clip-rule="evenodd" d="M462 178.314C462 173.423 462.002 168.531 461.972 163.64C461.947 159.519 461.9 155.4 461.788 151.281C461.546 142.305 461.016 133.251 459.42 124.375C457.801 115.37 455.157 106.99 450.991 98.8083C446.895 90.7669 441.544 83.4084 435.16 77.0289C428.778 70.6494 421.417 65.3025 413.373 61.209C405.183 57.0415 396.793 54.3985 387.779 52.78C378.902 51.186 369.846 50.6575 360.869 50.415C356.748 50.3035 352.626 50.2565 348.504 50.231C343.61 50.201 338.716 50.2035 333.822 50.2035L276.998 50H234.499L178.681 50.2035C173.777 50.2035 168.874 50.201 163.97 50.231C159.839 50.2565 155.71 50.3035 151.581 50.415C142.583 50.6575 133.507 51.1865 124.608 52.7825C115.582 54.4005 107.18 57.0425 98.9791 61.207C90.9177 65.301 83.5413 70.6484 77.1453 77.0289C70.7503 83.4079 65.3899 90.7649 61.2864 98.8048C57.1084 106.99 54.4595 115.376 52.8365 124.385C51.2385 133.258 50.709 142.309 50.4655 151.281C50.3545 155.4 50.3065 159.52 50.2815 163.64C50.2515 168.532 50 174.608 50 179.5L50.0015 234.544L50 277.499L50.254 333.713C50.254 338.611 50.252 343.509 50.2815 348.407C50.3065 352.533 50.3545 356.658 50.466 360.783C50.709 369.771 51.2395 378.837 52.839 387.726C54.4615 396.742 57.1099 405.135 61.2844 413.327C65.3884 421.38 70.7498 428.748 77.1453 435.136C83.5408 441.525 90.9152 446.879 98.9751 450.978C107.181 455.151 115.587 457.798 124.619 459.418C133.513 461.015 142.587 461.544 151.581 461.787C155.71 461.898 159.84 461.946 163.971 461.971C168.874 462.001 173.777 461.999 178.681 461.999L235.003 462H277.608L333.822 461.998C338.716 461.998 343.61 462.001 348.504 461.971C352.626 461.946 356.748 461.898 360.869 461.787C369.849 461.544 378.908 461.014 387.789 459.416C396.798 457.796 405.184 455.15 413.369 450.98C421.415 446.881 428.777 441.526 435.16 435.136C441.543 428.749 446.893 421.382 450.989 413.33C455.158 405.134 457.802 396.738 459.422 387.715C461.017 378.83 461.546 369.767 461.788 360.783C461.9 356.658 461.947 352.533 461.972 348.407C462.002 343.509 462 338.611 462 333.713C462 333.713 461.997 278.492 461.997 277.499V234.499C461.997 233.766 462 178.314 462 178.314" fill="white"/>
</mask>
<g mask="url(#mask0_103_47)">
<rect width="412" height="412" transform="translate(50 50)" fill="url(#paint0_linear_103_47)"/>
<rect width="412" height="412" transform="translate(50 50)" fill="url(#paint1_linear_103_47)" fill-opacity="0.2"/>
<mask id="mask1_103_47" style="mask-type:alpha" maskUnits="userSpaceOnUse" x="137" y="-55" width="466" height="613">
<path d="M137 475L384.5 -33.5L602.5 -55L540.5 557.5L182.5 549.5L137 475Z" fill="black"/>
</mask>
<g mask="url(#mask1_103_47)">
<path d="M353.43 383.133H158.237C132.458 383.133 111.56 362.235 111.56 336.457V175.21C111.56 149.432 132.458 128.533 158.237 128.533H353.43C379.208 128.533 400.107 149.432 400.107 175.21V336.457C400.107 362.235 379.208 383.133 353.43 383.133Z" fill="#A8C4C7"/>
<path d="M353.43 366.16H158.236C141.832 366.16 128.533 352.861 128.533 336.457V175.21C128.533 158.805 141.832 145.507 158.236 145.507H353.43C369.834 145.507 383.133 158.805 383.133 175.21V336.457C383.133 352.861 369.834 366.16 353.43 366.16Z" fill="#B9DFE6"/>
<path d="M353.43 387.377H158.237C130.158 387.377 107.317 364.535 107.317 336.457V175.21C107.317 147.132 130.158 124.29 158.237 124.29H353.43C381.508 124.29 404.35 147.132 404.35 175.21V336.457C404.35 364.535 381.508 387.377 353.43 387.377ZM158.237 132.777C134.839 132.777 115.803 151.812 115.803 175.21V336.457C115.803 359.854 134.839 378.89 158.237 378.89H353.43C376.828 378.89 395.863 359.854 395.863 336.457V175.21C395.863 151.812 376.828 132.777 353.43 132.777H158.237Z" fill="#1F212B"/>
<path d="M381.011 336.457V317.362L324.601 260.951C322.602 258.952 319.98 257.955 317.361 257.955C314.743 257.955 312.121 258.952 310.122 260.951L207.035 364.038H353.43C368.663 364.038 381.011 351.69 381.011 336.457Z" fill="#8EBDB0"/>
<path d="M353.43 366.16L207.035 366.16C206.178 366.16 205.401 365.642 205.075 364.849C204.744 364.055 204.926 363.143 205.533 362.536L308.62 259.449C313.284 254.785 321.435 254.785 326.094 259.449L382.505 315.86C382.908 316.258 383.133 316.797 383.133 317.362L383.133 336.457C383.133 352.836 369.809 366.16 353.43 366.16ZM212.157 361.917H353.43C367.471 361.917 378.89 350.498 378.89 336.457V318.24L323.099 262.449C320.039 259.389 314.684 259.389 311.625 262.449L212.157 361.917Z" fill="#1F212B"/>
<path d="M158.237 364.038H330.092L197.301 231.247C195.302 229.249 192.68 228.252 190.062 228.252C187.443 228.252 184.821 229.249 182.822 231.247L130.655 283.415V336.457C130.655 351.69 143.003 364.038 158.237 364.038Z" fill="#6FC5A6"/>
<path d="M330.091 366.16L158.236 366.16C141.857 366.16 128.533 352.836 128.533 336.457V283.415C128.533 282.851 128.758 282.312 129.153 281.913L181.32 229.745C185.984 225.082 194.135 225.082 198.794 229.745L331.585 362.536C332.192 363.143 332.374 364.055 332.043 364.849C331.725 365.642 330.949 366.16 330.091 366.16ZM132.776 284.293V336.457C132.776 350.498 144.195 361.917 158.236 361.917H324.97L195.798 232.745C192.739 229.686 187.384 229.686 184.324 232.745L132.776 284.293Z" fill="#1F212B"/>
<path d="M353.43 366.16H158.236C141.857 366.16 128.533 352.836 128.533 336.457V175.21C128.533 158.831 141.857 145.507 158.236 145.507H334.335C335.506 145.507 336.456 146.457 336.456 147.628C336.456 148.8 335.506 149.75 334.335 149.75H158.236C144.195 149.75 132.776 161.169 132.776 175.21L132.776 336.457C132.776 350.498 144.195 361.917 158.236 361.917L353.43 361.917C367.471 361.917 378.89 350.498 378.89 336.457L378.89 270.685C378.89 269.514 379.84 268.563 381.011 268.563C382.183 268.563 383.133 269.514 383.133 270.685V336.457C383.133 352.836 369.809 366.16 353.43 366.16Z" fill="#1F212B"/>
<path d="M381.012 230.373C379.84 230.373 378.89 229.423 378.89 228.252V219.765C378.89 218.594 379.84 217.643 381.012 217.643C382.183 217.643 383.133 218.594 383.133 219.765V228.252C383.133 229.423 382.183 230.373 381.012 230.373Z" fill="#1F212B"/>
<path d="M381.012 260.077C379.84 260.077 378.89 259.126 378.89 257.955V240.982C378.89 239.811 379.84 238.86 381.012 238.86C382.183 238.86 383.133 239.811 383.133 240.982V257.955C383.133 259.126 382.183 260.077 381.012 260.077Z" fill="#1F212B"/>
<path d="M325.848 224.008C337.566 224.008 347.065 214.509 347.065 202.792C347.065 191.074 337.566 181.575 325.848 181.575C314.131 181.575 304.631 191.074 304.631 202.792C304.631 214.509 314.131 224.008 325.848 224.008Z" fill="#F9E65C"/>
<path d="M325.848 226.13C312.978 226.13 302.51 215.662 302.51 202.792C302.51 189.922 312.978 179.453 325.848 179.453C338.718 179.453 349.186 189.922 349.186 202.792C349.186 215.662 338.718 226.13 325.848 226.13ZM325.848 183.697C315.32 183.697 306.753 192.264 306.753 202.792C306.753 213.319 315.32 221.887 325.848 221.887C336.376 221.887 344.943 213.319 344.943 202.792C344.943 192.264 336.376 183.697 325.848 183.697Z" fill="#1F212B"/>
</g>
<mask id="mask2_103_47" style="mask-type:alpha" maskUnits="userSpaceOnUse" x="-110" y="-55" width="466" height="613">
<path d="M355.5 27.5L108 536L-110 557.5L-48 -55L310 -47L355.5 27.5Z" fill="black"/>
</mask>
<g mask="url(#mask2_103_47)">
<path d="M158.237 124.29C130.165 124.29 107.317 147.138 107.317 175.21V336.457C107.317 364.528 130.165 387.377 158.237 387.377H353.43C381.501 387.377 404.35 364.528 404.35 336.457V175.21C404.35 147.138 381.501 124.29 353.43 124.29H158.237ZM158.237 132.777H353.43C376.915 132.777 395.863 151.725 395.863 175.21V336.457C395.863 359.942 376.915 378.89 353.43 378.89H158.237C134.752 378.89 115.803 359.942 115.803 336.457V175.21C115.803 151.725 134.752 132.777 158.237 132.777ZM158.237 145.507C141.856 145.507 128.533 158.83 128.533 175.21V283.117C128.496 283.344 128.496 283.577 128.533 283.805V336.457C128.533 352.837 141.856 366.16 158.237 366.16H329.793C330.021 366.197 330.253 366.197 330.481 366.16H353.43C369.81 366.16 383.133 352.837 383.133 336.457V317.768C383.174 317.529 383.174 317.285 383.133 317.047V270.685C383.137 270.404 383.085 270.125 382.98 269.864C382.876 269.603 382.72 269.365 382.522 269.165C382.325 268.965 382.09 268.806 381.83 268.698C381.571 268.589 381.293 268.533 381.012 268.533C380.73 268.533 380.452 268.589 380.193 268.698C379.933 268.806 379.698 268.965 379.501 269.165C379.303 269.365 379.148 269.603 379.043 269.864C378.938 270.125 378.886 270.404 378.89 270.685V312.24L326.097 259.447C323.692 257.042 320.518 255.833 317.362 255.833C314.205 255.833 311.031 257.042 308.626 259.447L268.563 299.51L198.797 229.743C196.392 227.338 193.218 226.13 190.062 226.13C186.905 226.13 183.731 227.338 181.326 229.743L132.777 278.293V175.21C132.777 161.123 144.149 149.75 158.237 149.75H334.335C334.616 149.754 334.895 149.702 335.156 149.597C335.417 149.492 335.654 149.337 335.855 149.139C336.055 148.942 336.214 148.707 336.322 148.447C336.431 148.188 336.487 147.91 336.487 147.628C336.487 147.347 336.431 147.069 336.322 146.809C336.214 146.55 336.055 146.315 335.855 146.117C335.654 145.92 335.417 145.764 335.156 145.659C334.895 145.555 334.616 145.503 334.335 145.507H158.237ZM325.848 179.453C318.246 179.453 312.278 182.381 308.353 186.796C304.428 191.212 302.51 197.016 302.51 202.792C302.51 208.567 304.428 214.371 308.353 218.787C312.278 223.203 318.246 226.13 325.848 226.13C338.712 226.13 349.187 215.656 349.187 202.792C349.187 189.927 338.712 179.453 325.848 179.453ZM325.848 183.697C336.419 183.697 344.943 192.221 344.943 202.792C344.943 213.363 336.419 221.887 325.848 221.887C319.306 221.887 314.666 219.51 311.519 215.969C308.371 212.429 306.753 207.624 306.753 202.792C306.753 197.959 308.371 193.155 311.519 189.614C314.666 186.073 319.306 183.697 325.848 183.697ZM380.978 217.61C380.7 217.615 380.425 217.674 380.169 217.784C379.913 217.895 379.682 218.055 379.488 218.255C379.294 218.455 379.141 218.691 379.039 218.951C378.936 219.21 378.886 219.486 378.89 219.765V228.252C378.886 228.533 378.938 228.812 379.043 229.073C379.148 229.334 379.303 229.571 379.501 229.771C379.698 229.972 379.933 230.131 380.193 230.239C380.452 230.348 380.73 230.404 381.012 230.404C381.293 230.404 381.571 230.348 381.83 230.239C382.09 230.131 382.325 229.972 382.522 229.771C382.72 229.571 382.876 229.334 382.98 229.073C383.085 228.812 383.137 228.533 383.133 228.252V219.765C383.138 219.481 383.085 219.199 382.978 218.935C382.872 218.672 382.713 218.432 382.512 218.231C382.311 218.03 382.072 217.872 381.808 217.765C381.545 217.658 381.263 217.606 380.978 217.61ZM190.062 230.373C192.141 230.373 194.205 231.152 195.797 232.744L266.765 303.712C266.926 303.953 267.134 304.159 267.378 304.317L324.97 361.917H158.237C144.149 361.917 132.777 350.544 132.777 336.457V284.293L184.326 232.744C185.918 231.152 187.982 230.373 190.062 230.373ZM380.978 238.827C380.7 238.831 380.425 238.89 380.169 239.001C379.913 239.112 379.682 239.272 379.488 239.472C379.294 239.672 379.141 239.908 379.039 240.167C378.936 240.426 378.886 240.703 378.89 240.982V257.955C378.886 258.236 378.938 258.515 379.043 258.776C379.148 259.037 379.303 259.275 379.501 259.475C379.698 259.675 379.933 259.834 380.193 259.942C380.452 260.051 380.73 260.107 381.012 260.107C381.293 260.107 381.571 260.051 381.83 259.942C382.09 259.834 382.325 259.675 382.522 259.475C382.72 259.275 382.876 259.037 382.98 258.776C383.085 258.515 383.137 258.236 383.133 257.955V240.982C383.138 240.697 383.085 240.415 382.978 240.152C382.872 239.888 382.713 239.649 382.512 239.448C382.311 239.247 382.072 239.089 381.808 238.982C381.545 238.875 381.263 238.822 380.978 238.827ZM317.362 260.077C319.441 260.077 321.505 260.855 323.097 262.447L378.89 318.24V336.457C378.89 350.544 367.517 361.917 353.43 361.917H330.97L271.563 302.51L311.626 262.447C313.218 260.855 315.282 260.077 317.362 260.077Z" fill="black"/>
</g>
</g>
<defs>
<filter id="filter0_d_103_47" x="45" y="50" width="422" height="422" filterUnits="userSpaceOnUse" color-interpolation-filters="sRGB">
<feFlood flood-opacity="0" result="BackgroundImageFix"/>
<feColorMatrix in="SourceAlpha" type="matrix" values="0 0 0 0 0 0 0 0 0 0 0 0 0 0 0 0 0 0 127 0" result="hardAlpha"/>
<feOffset dy="5"/>
<feGaussianBlur stdDeviation="2.5"/>
<feColorMatrix type="matrix" values="0 0 0 0 0 0 0 0 0 0 0 0 0 0 0 0 0 0 0.3 0"/>
<feBlend mode="normal" in2="BackgroundImageFix" result="effect1_dropShadow_103_47"/>
<feBlend mode="normal" in="SourceGraphic" in2="effect1_dropShadow_103_47" result="shape"/>
</filter>
<linearGradient id="paint0_linear_103_47" x1="-46.5" y1="105.5" x2="432.5" y2="333.5" gradientUnits="userSpaceOnUse">
<stop stop-color="white"/>
<stop offset="0.495" stop-color="#E4E4E4"/>
<stop offset="0.4951" stop-color="#FBFBFB"/>
<stop offset="1" stop-color="white"/>
</linearGradient>
<linearGradient id="paint1_linear_103_47" x1="287" y1="-8.46906e-07" x2="99" y2="412" gradientUnits="userSpaceOnUse">
<stop stop-color="white" stop-opacity="0"/>
<stop offset="1" stop-color="#1C1C1C"/>
</linearGradient>
</defs>
</svg>
