<svg width="60" height="60" viewBox="0 0 60 60" fill="none" xmlns="http://www.w3.org/2000/svg">
<rect width="60" height="60" rx="16" fill="url(#paint0_linear_44_85)"/>
<g clip-path="url(#clip0_44_85)">
<path d="M41.6669 16.0597V16.0597C41.9051 17.4083 40.8677 18.645 39.4982 18.645H22.6639C18.1232 18.645 15.4722 21.2698 15.4722 25.7843V41.8476C15.4722 41.8746 15.4723 41.9017 15.4751 41.9267C13.2075 41.7867 11.8422 40.3747 11.3776 37.7136L8.58228 21.8997C8.00484 18.5925 9.39595 16.624 12.7425 16.0334L35.7613 11.9782C39.0947 11.3877 41.0895 12.7788 41.6669 16.0597Z" fill="#675BFA"/>
</g>
<path fill-rule="evenodd" clip-rule="evenodd" d="M24.105 48.1685H47.4914C50.8773 48.1685 52.5964 46.4493 52.5964 43.116V27.0526C52.5964 23.7192 50.8773 22 47.4914 22H24.105C20.7192 22 19 23.7061 19 27.0526V43.116C19 46.4756 20.7192 48.1685 24.105 48.1685ZM26.7692 31.6852C26.7692 33.6801 28.3834 35.3205 30.3782 35.3205C32.3598 35.3205 33.9872 33.6801 33.9872 31.6852C33.9872 29.7167 32.3598 28.0631 30.3782 28.0631C28.3834 28.0631 26.7692 29.7167 26.7692 31.6852ZM20.9948 43.4834C20.9948 45.1238 21.9791 46.1212 23.6195 46.1212H48.0032C49.6043 46.1212 50.6148 45.1369 50.6148 43.4965V43.2489C50.6148 42.1349 50.1502 41.0713 49.3329 40.3143L43.8562 35.2417C43.1606 34.5987 42.3731 34.2837 41.507 34.2837C40.6278 34.2837 39.8928 34.5856 39.1578 35.2155L33.621 40.1184C32.8581 40.7939 31.7094 40.7879 30.9536 40.1044L29.5383 38.8245C28.9083 38.2339 28.2259 37.9452 27.4647 37.9452C26.7692 37.9452 26.1261 38.2339 25.4831 38.8114L21.4525 42.453C21.1611 42.7163 20.9948 43.0907 20.9948 43.4834V43.4834Z" fill="#675BFA"/>
<defs>
<linearGradient id="paint0_linear_44_85" x1="30" y1="0" x2="30" y2="60" gradientUnits="userSpaceOnUse">
<stop stop-color="#2C2C2C"/>
<stop offset="1"/>
</linearGradient>
<clipPath id="clip0_44_85">
<rect width="46.51" height="37.9142" fill="white" transform="translate(6.74496 11.0858)"/>
</clipPath>
</defs>
</svg>
